# xmcd
#
# Track frame offsets: 
#        150
#        13698
#        28178
#        39772
#        53437
#        66278
#        79188
#        91706
#        106129
#        120363
#        134556
#        148263
#        161784
#        175122
#        187994
#        201155
#        216200
#        227021
#        239427
#        250435
#        263677
#
# Disc length: 3659 seconds
#
# Revision: 0
# Processed by: cddbd v1.5.2PL0 Copyright (c) Steve Scherf et al.
# Submitted via: ExactAudioCopy v0.95a5
#
DISCID=1e0e4915
DTITLE=Red Foley - Tater Pie
DYEAR=2003
DGENRE=Comedy
TTITLE0=Single Life Is Good Enough For Me
TTITLE1=Echoes Of My Old Plantation Home
TTITLE2=Be Honest With Me
TTITLE3=I Don't Care Anymore
TTITLE4=Is It True
TTITLE5=Pals Of The Saddle
TTITLE6=Someday, Somewhere Sweetheart
TTITLE7=I'll Be True To You My Darling
TTITLE8=Too Many Blues
TTITLE9=I'm Waltzing With A Broken Heart
TTITLE10=Just A Man And His Dog
TTITLE11=I'm Throwing Rice
TTITLE12=Somebody's Cryin'
TTITLE13=Cincinnati Dancin' Pig
TTITLE14=I Want To Be With You Always
TTITLE15=My Heart Cries For You
TTITLE16=Dixie
TTITLE17=Tater Pie
TTITLE18=Don't Let The Stars Get In Your Eyes
TTITLE19=Sugar Foot Rag Square Dance
TTITLE20=I Gotta Have You
EXTD=
EXTT0=
EXTT1=
EXTT2=
EXTT3=
EXTT4=
EXTT5=
EXTT6=
EXTT7=
EXTT8=
EXTT9=
EXTT10=
EXTT11=
EXTT12=
EXTT13=
EXTT14=
EXTT15=
EXTT16=
EXTT17=
EXTT18=
EXTT19=
EXTT20=
PLAYORDER=
